<?xml version="1.0" encoding="utf-8"?>
<svg viewBox="69.24 6.127 340.074 344.363" width="32" height="32" xmlns="http://www.w3.org/2000/svg">
    <path d="M 373.701 273.637 L 275.301 175.237 L 373.489 77.05 L 337.164 40.725 L 238.976 138.912 L 140.576 40.525 L 104.251 76.85 L 202.651 175.237 L 104.464 273.425 L 140.789 309.75 L 238.976 211.562 L 337.376 309.95 L 373.701 273.625" fill="#fff"/>
    <path d="M 353.731 281.158 L 344.894 289.995 L 238.981 184.083 L 133.069 289.995 L 124.231 281.158 L 230.144 175.245 L 124.231 69.333 L 133.069 60.495 L 238.981 166.408 L 344.894 60.495 L 353.731 69.333 L 247.819 175.245 L 353.731 281.158 M 396.945 78.72 L 335.495 17.27 L 238.97 113.795 L 142.445 17.27 L 80.995 78.72 L 177.52 175.245 L 80.995 271.77 L 142.445 333.22 L 238.97 236.695 L 335.495 333.22 L 396.945 271.77 L 300.42 175.245 L 396.945 78.72 Z"/>
</svg>
